<svg width="621" height="1019" viewBox="0 0 621 1019" fill="none" xmlns="http://www.w3.org/2000/svg">
<g opacity="0.5">
<path d="M714.509 231.002L597.003 299.867" stroke="#B2B2B2"/>
<path d="M645.644 113.497L528.138 182.361" stroke="url(#paint0_linear_15_2063)"/>
<path d="M597.002 299.867L528.138 182.361" stroke="#B2B2B2"/>
<path d="M714.509 231.002L645.644 113.496" stroke="#B2B2B2"/>
<path d="M597.002 299.867L440.328 391.686" stroke="#B2B2B2"/>
<path d="M528.138 182.361L371.464 274.18" stroke="url(#paint1_linear_15_2063)"/>
<path d="M440.328 391.686L371.464 274.18" stroke="#B2B2B2"/>
<path d="M597.002 299.867L528.138 182.361" stroke="url(#paint2_linear_15_2063)"/>
<path d="M97.2832 434.864L214.789 366" stroke="#B2B2B2"/>
<path d="M166.147 552.37L283.653 483.506" stroke="#B2B2B2"/>
<path d="M214.789 366L283.653 483.506" stroke="#B2B2B2"/>
<path d="M97.2832 434.864L166.148 552.37" stroke="#B2B2B2"/>
<path d="M214.789 366L371.464 274.181" stroke="url(#paint3_linear_15_2063)"/>
<path d="M283.654 483.505L440.328 391.686" stroke="#B2B2B2"/>
<path d="M214.789 366L283.653 483.506" stroke="#B2B2B2"/>
<path d="M440.328 391.686L557.834 322.822" stroke="#B2B2B2"/>
<path d="M509.192 509.192L626.698 440.328" stroke="#B2B2B2"/>
<path d="M557.834 322.822L626.698 440.328" stroke="#B2B2B2"/>
<path d="M557.833 322.822L714.508 231.003" stroke="#B2B2B2"/>
<path d="M557.833 322.822L626.698 440.328" stroke="#B2B2B2"/>
<path d="M509.192 509.192L391.686 578.056" stroke="#B2B2B2"/>
<path d="M440.328 391.686L322.822 460.55" stroke="#B2B2B2"/>
<path d="M391.687 578.056L322.822 460.551" stroke="#B2B2B2"/>
<path d="M391.687 578.056L235.012 669.876" stroke="#B2B2B2"/>
<path d="M322.822 460.55L166.148 552.37" stroke="#B2B2B2"/>
<path d="M235.012 669.876L166.148 552.37" stroke="url(#paint4_linear_15_2063)"/>
<path d="M391.687 578.056L322.822 460.551" stroke="#B2B2B2"/>
<path d="M734.729 534.879L578.054 626.698" stroke="#B2B2B2"/>
<path d="M665.864 417.373L509.19 509.192" stroke="#B2B2B2"/>
<path d="M578.054 626.698L509.19 509.192" stroke="#B2B2B2"/>
<path d="M235.009 669.875L352.515 601.011" stroke="#B2B2B2"/>
<path d="M303.874 787.381L421.38 718.517" stroke="#B2B2B2"/>
<path d="M352.515 601.011L421.38 718.517" stroke="#B2B2B2"/>
<path d="M235.009 669.875L303.873 787.381" stroke="#B2B2B2"/>
<path d="M352.516 601.011L509.19 509.192" stroke="url(#paint5_linear_15_2063)"/>
<path d="M421.38 718.517L578.054 626.697" stroke="#B2B2B2"/>
<path d="M352.516 601.011L421.38 718.517" stroke="#B2B2B2"/>
<path d="M578.054 626.698L695.56 557.833" stroke="#B2B2B2"/>
<path d="M646.918 744.203L529.412 813.068" stroke="#B2B2B2"/>
<path d="M578.054 626.698L460.548 695.562" stroke="#B2B2B2"/>
<path d="M529.413 813.068L460.548 695.562" stroke="#B2B2B2"/>
<path d="M529.413 813.068L372.738 904.887" stroke="#B2B2B2"/>
<path d="M460.548 695.562L303.874 787.381" stroke="#B2B2B2"/>
<path d="M372.738 904.887L303.874 787.381" stroke="#B2B2B2"/>
<path d="M529.413 813.068L460.548 695.562" stroke="url(#paint6_linear_15_2063)"/>
</g>
<defs>
<linearGradient id="paint0_linear_15_2063" x1="621.652" y1="107.235" x2="562.83" y2="160.097" gradientUnits="userSpaceOnUse">
<stop stop-color="#13B0F5"/>
<stop offset="1" stop-color="#CA24B4"/>
</linearGradient>
<linearGradient id="paint1_linear_15_2063" x1="527.722" y1="183.954" x2="427.61" y2="316.567" gradientUnits="userSpaceOnUse">
<stop stop-color="#E70FAA"/>
<stop offset="1" stop-color="#13B0F5"/>
</linearGradient>
<linearGradient id="paint2_linear_15_2063" x1="603.264" y1="275.875" x2="550.402" y2="217.053" gradientUnits="userSpaceOnUse">
<stop stop-color="#13B0F5"/>
<stop offset="1" stop-color="#CA24B4"/>
</linearGradient>
<linearGradient id="paint3_linear_15_2063" x1="246.778" y1="374.349" x2="325.208" y2="303.866" gradientUnits="userSpaceOnUse">
<stop stop-color="#00C0FD"/>
<stop offset="0.421875" stop-color="#E70FAA"/>
<stop offset="1" stop-color="#00C0FD"/>
</linearGradient>
<linearGradient id="paint4_linear_15_2063" x1="235.012" y1="669.876" x2="134.428" y2="594.956" gradientUnits="userSpaceOnUse">
<stop stop-color="#8E34FF"/>
<stop offset="0.494792" stop-color="#CA24B4"/>
<stop offset="1" stop-color="#8E34FF"/>
</linearGradient>
<linearGradient id="paint5_linear_15_2063" x1="392.585" y1="577.866" x2="465.958" y2="479.805" gradientUnits="userSpaceOnUse">
<stop stop-color="#13B0F5"/>
<stop offset="0.75" stop-color="#CA24B4"/>
<stop offset="1" stop-color="#13B0F5"/>
</linearGradient>
<linearGradient id="paint6_linear_15_2063" x1="529.413" y1="813.068" x2="428.828" y2="738.148" gradientUnits="userSpaceOnUse">
<stop stop-color="#13B0F5"/>
<stop offset="0.0582928" stop-color="#CA24B4"/>
<stop offset="1" stop-color="#13B0F5"/>
</linearGradient>
</defs>
</svg>
